<svg width="1365" height="814" viewBox="0 0 1365 814" fill="none" xmlns="http://www.w3.org/2000/svg">
<g clip-path="url(#clip0_1_2296)">
<rect width="1365" height="814" fill="white"/>
<rect x="603" y="777" width="19.555" height="16.14" transform="rotate(11 603 777)" fill="#F54721" fill-opacity="0.85"/>
<rect x="642" y="143" width="22.555" height="8.14" transform="rotate(24 642 143)" fill="#4BC8EF" fill-opacity="0.45"/>
<rect x="1018" y="324" width="9.555" height="9.14" transform="rotate(143 1018 324)" fill="#9DED1A" fill-opacity="0.75"/>
<rect x="987" y="91" width="26.555" height="8.14" transform="rotate(46 987 91)" fill="#DCBCFA"/>
<rect x="943" y="363" width="9.555" height="14.14" transform="rotate(-127 943 363)" fill="#DCBCFA" fill-opacity="0.45"/>
<rect x="628" y="660" width="35.555" height="14.14" transform="rotate(144 628 660)" fill="#FFED36" fill-opacity="0.35"/>
<rect x="97" y="161" width="13.555" height="12.14" transform="rotate(5 97 161)" fill="#4BC8EF" fill-opacity="0.6"/>
<rect x="808" y="394" width="31.555" height="15.14" transform="rotate(155 808 394)" fill="#FF21FB" fill-opacity="0.9"/>
<rect x="74" y="476" width="21.555" height="15.14" transform="rotate(158 74 476)" fill="#BA3E03" fill-opacity="0.65"/>
<rect x="502" y="583" width="13.555" height="10.14" transform="rotate(-93 502 583)" fill="#BA3E03" fill-opacity="0.85"/>
<rect x="891" y="365" width="20.555" height="16.14" transform="rotate(28 891 365)" fill="#480CA7" fill-opacity="0.75"/>
<rect x="349" y="671" width="44.555" height="14.14" transform="rotate(81 349 671)" fill="#BA3E03" fill-opacity="0.6"/>
<rect x="779" y="3" width="14.555" height="16.14" transform="rotate(97 779 3)" fill="#FC9E1C" fill-opacity="0.85"/>
<rect x="865" y="770" width="14.555" height="13.14" transform="rotate(-131 865 770)" fill="#9AF5FC" fill-opacity="0.65"/>
<rect x="1112" y="509" width="20.555" height="16.14" transform="rotate(-138 1112 509)" fill="#FF21FB" fill-opacity="0.75"/>
<rect x="615" y="43" width="51.555" height="11.14" transform="rotate(144 615 43)" fill="#FC9E1C" fill-opacity="0.85"/>
<rect x="1073" y="697" width="53.555" height="13.14" transform="rotate(107 1073 697)" fill="#FC9E1C" fill-opacity="0.35"/>
<rect x="101" y="270" width="17.555" height="9.14" transform="rotate(-88 101 270)" fill="#480CA7" fill-opacity="0.85"/>
<rect x="696" y="398" width="27.555" height="8.14" transform="rotate(-28 696 398)" fill="#480CA7"/>
<rect x="1118" y="279" width="38.555" height="10.14" transform="rotate(169 1118 279)" fill="#03A3F5" fill-opacity="0.85"/>
<rect x="297" y="754" width="33.555" height="13.14" transform="rotate(-83 297 754)" fill="#BA3E03" fill-opacity="0.9"/>
<rect x="574" y="695" width="51.555" height="13.14" transform="rotate(-173 574 695)" fill="#FFED36" fill-opacity="0.45"/>
<rect x="345" y="135" width="12.555" height="13.14" transform="rotate(128 345 135)" fill="#4BC8EF" fill-opacity="0.65"/>
<rect x="281" y="636" width="36.555" height="10.14" transform="rotate(-121 281 636)" fill="#F54721" fill-opacity="0.75"/>
<rect x="1067" y="627" width="16.555" height="9.14" transform="rotate(-105 1067 627)" fill="#F62584"/>
<rect x="530" y="504" width="51.555" height="16.14" transform="rotate(105 530 504)" fill="#480CA7" fill-opacity="0.6"/>
<rect x="862" y="479" width="41.555" height="14.14" transform="rotate(124 862 479)" fill="#BA3E03" fill-opacity="0.35"/>
<rect x="647" y="686" width="52.555" height="15.14" transform="rotate(149 647 686)" fill="#DCBCFA" fill-opacity="0.75"/>
<rect x="727" y="499" width="19.555" height="9.14" transform="rotate(63 727 499)" fill="#9AF5FC"/>
<rect x="1072" y="308" width="45.555" height="14.14" transform="rotate(33 1072 308)" fill="#BA3E03" fill-opacity="0.85"/>
<rect x="1077" y="38" width="15.555" height="14.14" transform="rotate(89 1077 38)" fill="#DCBCFA" fill-opacity="0.6"/>
<rect x="1193" y="403" width="23.555" height="9.14" transform="rotate(-19 1193 403)" fill="#F54721" fill-opacity="0.9"/>
<rect x="208" y="601" width="35.555" height="15.14" transform="rotate(-165 208 601)" fill="#F62584" fill-opacity="0.6"/>
<rect x="738" y="659" width="36.555" height="8.14" transform="rotate(-29 738 659)" fill="#FC9E1C" fill-opacity="0.85"/>
<rect x="735" y="390" width="41.555" height="9.14" transform="rotate(-144 735 390)" fill="#9DED1A"/>
<rect x="1066" y="218" width="13.555" height="12.14" transform="rotate(155 1066 218)" fill="#F62584" fill-opacity="0.9"/>
<rect x="840" y="372" width="40.555" height="8.14" transform="rotate(-165 840 372)" fill="#FF21FB" fill-opacity="0.65"/>
<rect x="232" y="583" width="46.555" height="16.14" transform="rotate(159 232 583)" fill="#C9FCBE" fill-opacity="0.6"/>
<rect x="571" y="161" width="31.555" height="15.14" transform="rotate(-90 571 161)" fill="#4BC8EF" fill-opacity="0.6"/>
<rect x="831" y="659" width="9.555" height="13.14" transform="rotate(-69 831 659)" fill="#C9FCBE" fill-opacity="0.9"/>
<rect x="705" y="460" width="39.555" height="13.14" transform="rotate(-17 705 460)" fill="#FF21FB" fill-opacity="0.75"/>
<rect x="1191" y="386" width="36.555" height="15.14" transform="rotate(180 1191 386)" fill="#FF21FB" fill-opacity="0.35"/>
<rect x="316" y="358" width="18.555" height="15.14" transform="rotate(117 316 358)" fill="#9AF5FC" fill-opacity="0.45"/>
<rect x="1079" y="176" width="43.555" height="9.14" transform="rotate(-64 1079 176)" fill="#480CA7"/>
<circle cx="126.412" cy="542.412" r="10.4125" fill="#DCBCFA" fill-opacity="0.75"/>
<circle cx="743.912" cy="712.912" r="5.9125" fill="#4BC8EF" fill-opacity="0.45"/>
<circle cx="370.413" cy="695.412" r="9.4125" fill="#F62584" fill-opacity="0.45"/>
<circle cx="1069.41" cy="222.413" r="3.4125" fill="#9AF5FC"/>
<circle cx="662.412" cy="272.413" r="4.4125" fill="#BA3E03" fill-opacity="0.45"/>
<circle cx="1256.91" cy="461.913" r="6.9125" fill="#F54721"/>
<circle cx="356.913" cy="58.9125" r="4.9125" fill="#C9FCBE"/>
<circle cx="1148.91" cy="327.913" r="4.9125" fill="#9AF5FC" fill-opacity="0.75"/>
<circle cx="389.913" cy="282.913" r="4.9125" fill="#C9FCBE" fill-opacity="0.65"/>
<circle cx="126.912" cy="560.912" r="8.9125" fill="#9DED1A" fill-opacity="0.6"/>
<circle cx="323.913" cy="661.912" r="6.9125" fill="#4BC8EF" fill-opacity="0.75"/>
<circle cx="272.413" cy="336.413" r="6.4125" fill="#BA3E03" fill-opacity="0.6"/>
<circle cx="758.912" cy="19.9125" r="4.9125" fill="#F54721" fill-opacity="0.9"/>
<circle cx="951.412" cy="453.413" r="6.4125" fill="#FF21FB" fill-opacity="0.35"/>
<circle cx="818.412" cy="467.413" r="8.4125" fill="#FFED36" fill-opacity="0.65"/>
<circle cx="228.913" cy="496.913" r="7.9125" fill="#FC9E1C" fill-opacity="0.75"/>
<circle cx="561.912" cy="543.912" r="3.9125" fill="#BA3E03" fill-opacity="0.6"/>
<circle cx="896.912" cy="337.913" r="8.9125" fill="#F62584" fill-opacity="0.9"/>
<circle cx="245.913" cy="33.9125" r="9.9125" fill="#FC9E1C" fill-opacity="0.45"/>
<circle cx="831.912" cy="201.913" r="7.9125" fill="#FC9E1C" fill-opacity="0.65"/>
<circle cx="811.912" cy="178.913" r="8.9125" fill="#9AF5FC" fill-opacity="0.45"/>
<circle cx="392.913" cy="594.912" r="7.9125" fill="#FFED36" fill-opacity="0.6"/>
<circle cx="496.413" cy="87.4125" r="3.4125" fill="#FF21FB" fill-opacity="0.35"/>
<circle cx="1339.41" cy="635.412" r="4.4125" fill="#C9FCBE" fill-opacity="0.9"/>
<circle cx="1009.41" cy="571.412" r="6.4125" fill="#480CA7" fill-opacity="0.9"/>
<circle cx="798.912" cy="153.913" r="5.9125" fill="#9AF5FC"/>
<circle cx="231.913" cy="52.9125" r="8.9125" fill="#FF21FB" fill-opacity="0.6"/>
<circle cx="987.912" cy="56.9125" r="3.9125" fill="#03A3F5" fill-opacity="0.65"/>
<circle cx="577.412" cy="616.412" r="3.4125" fill="#DCBCFA" fill-opacity="0.35"/>
<circle cx="1282.41" cy="568.412" r="9.4125" fill="#FC9E1C" fill-opacity="0.45"/>
<circle cx="1164.91" cy="379.913" r="8.9125" fill="#F54721" fill-opacity="0.9"/>
<circle cx="575.912" cy="674.912" r="6.9125" fill="#03A3F5" fill-opacity="0.85"/>
<circle cx="883.912" cy="284.913" r="9.9125" fill="#480CA7" fill-opacity="0.35"/>
<circle cx="1028.91" cy="14.9125" r="6.9125" fill="#480CA7" fill-opacity="0.85"/>
<circle cx="125.912" cy="721.912" r="5.9125" fill="#9AF5FC" fill-opacity="0.85"/>
<circle cx="197.413" cy="473.413" r="5.4125" fill="#C9FCBE" fill-opacity="0.75"/>
<circle cx="1065.41" cy="495.413" r="5.4125" fill="#FFED36" fill-opacity="0.9"/>
<circle cx="1349.41" cy="301.413" r="3.4125" fill="#DCBCFA"/>
<circle cx="1251.41" cy="554.412" r="5.4125" fill="#480CA7" fill-opacity="0.9"/>
<circle cx="787.412" cy="773.412" r="4.4125" fill="#FC9E1C"/>
<circle cx="693.912" cy="688.912" r="9.9125" fill="#F54721" fill-opacity="0.65"/>
<circle cx="313.413" cy="571.412" r="8.4125" fill="#FFED36" fill-opacity="0.65"/>
<circle cx="1236.41" cy="173.413" r="5.4125" fill="#480CA7" fill-opacity="0.45"/>
<circle cx="750.912" cy="226.913" r="9.9125" fill="#F54721" fill-opacity="0.45"/>
<path d="M393.895 383.794L375.479 396.215L373.929 374.056L393.895 383.794Z" fill="#BA3E03" fill-opacity="0.6"/>
<path d="M110.295 555.86L120.513 562.752L119.653 575.047L108.575 580.45L98.3576 573.558L99.2173 561.263L110.295 555.86Z" fill="#480CA7" fill-opacity="0.65"/>
<path d="M381.645 713.008L373.344 699.724L383.413 687.724L397.937 693.592L396.844 709.219L381.645 713.008Z" fill="#F54721" fill-opacity="0.45"/>
<path d="M540.588 236.893L542.163 221.899L556.911 218.765L564.449 231.821L554.361 243.025L540.588 236.893Z" fill="#DCBCFA" fill-opacity="0.75"/>
<path d="M791.036 231.57L781.988 229.314L779.418 220.351L785.896 213.643L794.944 215.899L797.514 224.862L791.036 231.57Z" fill="#F54721" fill-opacity="0.9"/>
<path d="M299.327 634.24L304.555 619.876L314.381 631.585L299.327 634.24Z" fill="#480CA7" fill-opacity="0.75"/>
<path d="M274.893 375.451L265.335 376.794L263.991 367.236L273.549 365.893L274.893 375.451Z" fill="#F54721" fill-opacity="0.6"/>
<path d="M1181.04 379.821L1183.35 366.71L1196.53 364.857L1202.37 376.823L1192.79 386.071L1181.04 379.821Z" fill="#4BC8EF" fill-opacity="0.85"/>
<path d="M76.5021 263.832L77.5287 244.243L93.9796 254.927L76.5021 263.832Z" fill="#03A3F5" fill-opacity="0.65"/>
<path d="M1281.06 769.578L1289.42 761.216L1300.84 764.277L1303.9 775.699L1295.54 784.061L1284.12 781L1281.06 769.578Z" fill="#755FFE" fill-opacity="0.45"/>
<path d="M943.675 18L935.757 12.2476L938.782 2.93993L948.568 2.93993L951.593 12.2476L943.675 18Z" fill="#480CA7" fill-opacity="0.45"/>
<path d="M707.813 254.429L707.197 242.672L718.954 242.056L719.571 253.813L707.813 254.429Z" fill="#DCBCFA" fill-opacity="0.45"/>
<path d="M348.596 456.973L344.694 471.536L329.638 472.325L324.235 458.25L335.952 448.762L348.596 456.973Z" fill="#4BC8EF"/>
<path d="M646.931 674.061L665.878 668.984L660.801 687.931L646.931 674.061Z" fill="#FF21FB"/>
<path d="M244.642 249.019L247.264 267.68L228.603 270.303L225.981 251.642L244.642 249.019Z" fill="#F54721" fill-opacity="0.9"/>
<path d="M1308.85 479.679L1292.93 492.569L1289.73 472.34L1308.85 479.679Z" fill="#4BC8EF" fill-opacity="0.75"/>
<path d="M1070.29 504.658L1064.32 495.465L1071.22 486.945L1081.46 490.874L1080.88 501.821L1070.29 504.658Z" fill="#755FFE" fill-opacity="0.75"/>
<path d="M541.72 248.474L536.966 234.668L550.772 229.914L555.526 243.72L541.72 248.474Z" fill="#FF21FB" fill-opacity="0.45"/>
<path d="M1303.31 415.979L1293.04 408.522L1304.63 403.362L1303.31 415.979Z" fill="#C9FCBE" fill-opacity="0.85"/>
<path d="M888.184 367.658L880.644 370.402L875.704 364.08L880.191 357.428L887.904 359.64L888.184 367.658Z" fill="#9AF5FC" fill-opacity="0.75"/>
<path d="M418.197 548.963L426.431 565.124L410.271 573.358L402.037 557.197L418.197 548.963Z" fill="#4BC8EF" fill-opacity="0.35"/>
<path d="M1354.67 42.0909L1365.26 38.8555L1368.49 49.4382L1357.91 52.6736L1354.67 42.0909Z" fill="#9DED1A" fill-opacity="0.6"/>
<path d="M488.702 191.766L493.849 182.087L504.644 183.99L506.17 194.846L496.317 199.651L488.702 191.766Z" fill="#F54721" fill-opacity="0.6"/>
<path d="M490.463 451.296L493.984 442.124L503.688 440.587L509.871 448.222L506.35 457.394L496.646 458.931L490.463 451.296Z" fill="#DCBCFA" fill-opacity="0.35"/>
<path d="M539.699 142.574L525.823 141.847L526.55 127.971L540.426 128.699L539.699 142.574Z" fill="#DCBCFA" fill-opacity="0.85"/>
<path d="M975.113 657.887L965.447 659.418L961.004 650.698L967.924 643.777L976.644 648.221L975.113 657.887Z" fill="#480CA7" fill-opacity="0.65"/>
<path d="M1018.65 157.01L1021.51 166.369L1013.49 171.982L1005.68 166.093L1008.86 156.839L1018.65 157.01Z" fill="#4BC8EF"/>
<path d="M835.355 710.947L825.763 697.248L839.461 687.656L849.053 701.355L835.355 710.947Z" fill="#DCBCFA" fill-opacity="0.85"/>
<path d="M362.146 735.805L373.486 720.755L388.536 732.096L377.195 747.146L362.146 735.805Z" fill="#FFED36" fill-opacity="0.65"/>
<path d="M1282.46 712.632L1276.02 702.714L1281.39 692.178L1293.2 691.559L1299.64 701.477L1294.27 712.013L1282.46 712.632Z" fill="#BA3E03" fill-opacity="0.75"/>
<path d="M433.443 500.328L426.639 504.58L420.493 499.422L423.499 491.983L431.502 492.543L433.443 500.328Z" fill="#755FFE"/>
<path d="M319.176 30.1366L311.641 24.8603L314.33 16.0634L323.528 15.9029L326.523 24.6006L319.176 30.1366Z" fill="#DCBCFA"/>
<path d="M653.662 663.401L668.803 645.983L676.317 667.805L653.662 663.401Z" fill="#FC9E1C" fill-opacity="0.6"/>
<path d="M457.522 444.34L471.49 459.319L451.534 463.927L457.522 444.34Z" fill="#BA3E03" fill-opacity="0.35"/>
<path d="M294.981 510.358L297.603 491.697L316.264 494.32L313.642 512.981L294.981 510.358Z" fill="#C9FCBE"/>
<path d="M507.425 43.2788L492.571 46.9824L488.867 32.1283L503.721 28.4247L507.425 43.2788Z" fill="#F62584" fill-opacity="0.35"/>
<path d="M981.224 147.729L974.72 156.681L965.767 150.177L972.271 141.224L981.224 147.729Z" fill="#9AF5FC" fill-opacity="0.9"/>
<path d="M1144.2 772L1144.05 780.61L1135.82 783.128L1130.88 776.074L1136.06 769.197L1144.2 772Z" fill="#9DED1A" fill-opacity="0.65"/>
<path d="M829.19 599.567L817.813 589.323L828.057 577.946L839.433 588.19L829.19 599.567Z" fill="#480CA7" fill-opacity="0.9"/>
<path d="M287.118 264.327L303.908 255.772L312.463 272.562L295.673 281.118L287.118 264.327Z" fill="#F62584" fill-opacity="0.9"/>
<path d="M657.866 753.562L658.17 770.989L640.743 771.293L640.438 753.866L657.866 753.562Z" fill="#9AF5FC" fill-opacity="0.6"/>
<path d="M419.351 592.24L419.865 602.051L411.625 607.403L402.871 602.942L402.357 593.131L410.597 587.779L419.351 592.24Z" fill="#755FFE" fill-opacity="0.85"/>
<path d="M529.092 353.351L514.681 353.854L521.451 341.122L529.092 353.351Z" fill="#FF21FB"/>
<path d="M1366.22 302.929L1360.36 317.453L1344.73 316.36L1340.94 301.161L1354.22 292.86L1366.22 302.929Z" fill="#480CA7" fill-opacity="0.9"/>
<path d="M795.376 64.5383L792.676 74.1477L798.213 82.4523L788.604 79.7524L780.299 85.2896L782.999 75.6803L777.462 67.3756L787.071 70.0756L795.376 64.5383Z" fill="#F54721" fill-opacity="0.45"/>
<path d="M1017.61 746.667L1019.88 738.758L1013.06 734.157L1021.28 733.87L1023.55 725.96L1026.36 733.692L1034.59 733.405L1028.1 738.471L1030.92 746.203L1024.09 741.601L1017.61 746.667Z" fill="#9AF5FC" fill-opacity="0.85"/>
<path d="M209.552 193.972L205.423 198.448L206.133 204.497L201.657 200.367L195.608 201.077L199.738 196.601L199.028 190.552L203.504 194.682L209.552 193.972Z" fill="#03A3F5" fill-opacity="0.85"/>
<path d="M871.628 567.184L870.433 575.691L878.154 579.458L869.694 580.95L868.498 589.457L864.464 581.872L856.004 583.363L861.972 577.183L857.938 569.598L865.66 573.364L871.628 567.184Z" fill="#9DED1A" fill-opacity="0.75"/>
<path d="M902.269 108.088L899.87 112.586L904.288 115.13L899.193 115.301L899.2 120.399L896.504 116.072L892.092 118.627L894.491 114.129L890.073 111.585L895.168 111.414L895.162 106.316L897.858 110.643L902.269 108.088Z" fill="#FFED36" fill-opacity="0.35"/>
<path d="M1245.88 778.786L1244.33 787.605L1252.23 791.809L1243.37 793.055L1241.81 801.874L1237.89 793.825L1229.02 795.071L1235.46 788.851L1231.53 780.803L1239.44 785.007L1245.88 778.786Z" fill="#FF21FB" fill-opacity="0.75"/>
<path d="M1338.46 606.717L1343.71 609.172L1346.33 604.007L1346.83 609.779L1352.62 609.468L1347.87 612.785L1351.03 617.64L1345.78 615.185L1343.16 620.351L1342.66 614.579L1336.87 614.889L1341.62 611.572L1338.46 606.717Z" fill="#755FFE" fill-opacity="0.6"/>
<path d="M551.982 539.534L550.416 545.376L555.489 548.671L549.449 548.987L547.884 554.83L545.716 549.183L539.676 549.499L544.376 545.693L542.209 540.046L547.281 543.341L551.982 539.534Z" fill="#9DED1A" fill-opacity="0.45"/>
<path d="M961.237 542.811L961.698 536.338L955.243 535.667L961.08 532.83L958.433 526.905L963.808 530.54L967.616 525.285L967.155 531.759L973.61 532.429L967.774 535.266L970.421 541.191L965.045 537.556L961.237 542.811Z" fill="#9DED1A"/>
<path d="M1181.29 736.97L1182.57 731.43L1177.7 728.502L1183.36 728.007L1184.64 722.467L1186.86 727.701L1192.53 727.205L1188.24 730.935L1190.46 736.168L1185.58 733.24L1181.29 736.97Z" fill="#C9FCBE"/>
<path d="M841.068 184.869L836.102 180.124L829.268 180.805L834.012 175.839L833.331 169.005L838.297 173.75L845.131 173.068L840.387 178.034L841.068 184.869Z" fill="#755FFE" fill-opacity="0.65"/>
<path d="M115.619 131.191L123.917 128.968L124.367 120.388L129.046 127.593L137.345 125.37L131.938 132.046L136.617 139.252L128.597 136.173L123.19 142.85L123.64 134.27L115.619 131.191Z" fill="#4BC8EF" fill-opacity="0.35"/>
<path d="M746.195 449.854L747.876 459.389L757.463 460.736L748.915 465.281L750.597 474.815L743.632 468.09L735.085 472.635L739.328 463.934L732.364 457.209L741.951 458.556L746.195 449.854Z" fill="#FC9E1C" fill-opacity="0.85"/>
<path d="M1012.98 182.594L1021.38 181.962L1026.37 175.172L1027.01 183.574L1033.8 188.562L1025.39 189.194L1020.41 195.984L1019.77 187.583L1012.98 182.594Z" fill="#FFED36"/>
<path d="M843.134 510.094L848.367 512.316L852.097 508.025L851.601 513.689L856.834 515.91L851.295 517.189L850.8 522.853L847.871 517.979L842.332 519.258L846.062 514.968L843.134 510.094Z" fill="#03A3F5" fill-opacity="0.45"/>
<path d="M368.744 258.235L375.469 251.271L370.924 242.723L379.626 246.967L386.351 240.003L385.004 249.59L393.705 253.833L384.171 255.515L382.823 265.102L378.278 256.554L368.744 258.235Z" fill="#9DED1A"/>
<path d="M454.468 718.561L458.004 722.233L461.788 718.817L460.377 723.715L465.227 725.284L460.279 726.511L461.345 731.496L457.809 727.825L454.025 731.241L455.436 726.342L450.586 724.773L455.534 723.546L454.468 718.561Z" fill="#480CA7" fill-opacity="0.35"/>
<path d="M145.228 98.613L149.163 101.274L151.95 97.4278L151.612 102.166L156.337 102.656L152.065 104.733L154.002 109.069L150.068 106.409L147.281 110.255L147.618 105.517L142.894 105.026L147.166 102.95L145.228 98.613Z" fill="#9AF5FC" fill-opacity="0.65"/>
<path d="M347.629 564.564L353.117 567.205L358.693 564.757L356.053 570.245L358.5 575.822L353.012 573.182L347.436 575.629L350.076 570.141L347.629 564.564Z" fill="#FC9E1C" fill-opacity="0.9"/>
<path d="M1226.49 416.356L1219.05 410.748L1211.42 416.093L1214.45 407.283L1207.01 401.675L1216.33 401.838L1219.36 393.027L1222.09 401.938L1231.4 402.101L1223.77 407.445L1226.49 416.356Z" fill="#FC9E1C" fill-opacity="0.65"/>
<path d="M914.909 209.326L919.457 213.377L925.492 212.562L921.441 217.109L922.256 223.145L917.709 219.094L911.674 219.909L915.724 215.362L914.909 209.326Z" fill="#9AF5FC" fill-opacity="0.45"/>
<path d="M1316.66 567.733L1309.68 561.732L1300.58 563.123L1306.58 556.146L1305.19 547.048L1312.17 553.049L1321.27 551.658L1315.27 558.635L1316.66 567.733Z" fill="#C9FCBE"/>
<path d="M774 5.675L783.726 2.07604L787.325 -7.65L790.924 2.07604L800.65 5.675L790.924 9.27396L787.325 19L783.726 9.27396L774 5.675Z" fill="#9DED1A" fill-opacity="0.9"/>
<path d="M935.576 119.785L943.679 118.356L944.824 110.208L948.687 117.473L956.79 116.045L951.075 121.963L954.937 129.228L947.542 125.621L941.826 131.54L942.971 123.392L935.576 119.785Z" fill="#FFED36" fill-opacity="0.45"/>
<path d="M1028.62 582.183L1022.64 585.364L1023.81 592.036L1018.94 587.33L1012.96 590.51L1015.93 584.421L1011.05 579.715L1017.76 580.658L1020.73 574.568L1021.91 581.24L1028.62 582.183Z" fill="#C9FCBE" fill-opacity="0.85"/>
<path d="M615.131 203.068L619.876 198.102L619.195 191.268L624.161 196.012L630.995 195.331L626.25 200.297L626.932 207.131L621.966 202.387L615.131 203.068Z" fill="#BA3E03" fill-opacity="0.65"/>
<path d="M1170.66 196.599L1161.4 196.102L1160.61 205.341L1156.41 197.073L1148.01 201.003L1153.07 193.232L1145.46 187.923L1154.72 188.42L1155.52 179.181L1159.72 187.448L1168.12 183.519L1163.06 191.29L1170.66 196.599Z" fill="#9AF5FC" fill-opacity="0.65"/>
<path d="M1207.41 311.691L1215.09 308.742L1214.66 300.525L1219.84 306.919L1227.52 303.971L1223.04 310.871L1228.21 317.266L1220.27 315.136L1215.79 322.037L1215.36 313.82L1207.41 311.691Z" fill="#C9FCBE" fill-opacity="0.65"/>
<path d="M869.003 762.017L877.67 756.322L878.989 746.036L884.683 754.703L894.969 756.022L886.302 761.716L884.983 772.003L879.289 763.335L869.003 762.017Z" fill="#480CA7" fill-opacity="0.85"/>
<path d="M185.807 458.671L187.804 467.37L196.563 465.656L190.028 471.735L195.892 478.464L187.36 475.843L184.465 484.286L182.468 475.587L173.709 477.301L180.244 471.222L174.38 464.494L182.912 467.114L185.807 458.671Z" fill="#9AF5FC"/>
<path d="M953.81 71.905L944.259 72.7921L938.715 80.6201L937.828 71.069L930 65.5251L939.551 64.6381L945.095 56.8101L945.982 66.3612L953.81 71.905Z" fill="#FFED36" fill-opacity="0.9"/>
<path d="M583.329 484.807L573.799 487.777L569.85 496.944L566.881 487.414L557.714 483.465L567.243 480.496L571.193 471.329L574.162 480.858L583.329 484.807Z" fill="#FF21FB" fill-opacity="0.75"/>
<path d="M1170.8 268.313L1171.97 260.903L1165.29 257.498L1172.7 256.324L1173.87 248.915L1177.28 255.599L1184.69 254.425L1179.38 259.73L1182.79 266.414L1176.1 263.008L1170.8 268.313Z" fill="#9DED1A" fill-opacity="0.65"/>
<path d="M223.891 433.509L228.059 430.216L228.273 424.909L231.565 429.077L236.873 429.291L232.705 432.584L232.491 437.891L229.198 433.723L223.891 433.509Z" fill="#480CA7" fill-opacity="0.75"/>
<path d="M197.819 336.15L198.26 327.933L190.061 327.226L197.398 323.499L193.911 316.045L200.807 320.536L205.519 313.789L205.078 322.006L213.277 322.713L205.94 326.44L209.427 333.894L202.531 329.403L197.819 336.15Z" fill="#F62584" fill-opacity="0.85"/>
<path d="M886.595 578.799L882.03 580.737L882.463 585.676L879.209 581.934L874.645 583.871L877.199 579.621L873.946 575.879L878.777 576.994L881.331 572.744L881.763 577.684L886.595 578.799Z" fill="#03A3F5" fill-opacity="0.85"/>
<path d="M1213.77 119.36L1208.82 113.529L1201.17 113.488L1207.01 108.542L1207.05 100.895L1211.99 106.727L1219.64 106.768L1213.81 111.714L1213.77 119.36Z" fill="#F54721" fill-opacity="0.65"/>
<path d="M465.739 354.772L468.55 360.535L474.899 359.642L470.287 364.096L473.098 369.859L467.436 366.849L462.824 371.303L463.938 364.989L458.276 361.978L464.626 361.086L465.739 354.772Z" fill="#480CA7" fill-opacity="0.6"/>
<path d="M97.1485 437.183L96.3838 442.574L101.748 443.513L96.6963 445.547L98.5652 450.662L94.2782 447.304L90.7831 451.48L91.5477 446.088L86.1836 445.149L91.2353 443.116L89.3664 438.001L93.6534 441.359L97.1485 437.183Z" fill="#C9FCBE" fill-opacity="0.75"/>
<path d="M1030.41 776.201L1034.97 774.263L1034.54 769.324L1037.79 773.066L1042.36 771.129L1039.8 775.379L1043.05 779.121L1038.22 778.006L1035.67 782.256L1035.24 777.316L1030.41 776.201Z" fill="#C9FCBE" fill-opacity="0.85"/>
<path d="M1134.55 677.749L1124.13 680.408L1119.36 690.053L1116.7 679.627L1107.06 674.859L1117.48 672.2L1122.25 662.555L1124.91 672.981L1134.55 677.749Z" fill="#F62584" fill-opacity="0.75"/>
<path d="M326.679 18.414L322.897 26.4982L330.855 30.5402L321.962 31.307L322.441 40.2194L317.33 32.9018L309.851 37.7723L313.633 29.688L305.676 25.646L314.568 24.8793L314.09 15.9668L319.2 23.2844L326.679 18.414Z" fill="#755FFE" fill-opacity="0.35"/>
<path d="M236.253 743.663L231.688 747.631L234.051 753.199L228.867 750.084L224.302 754.052L225.663 748.159L220.478 745.043L226.503 744.516L227.864 738.623L230.227 744.19L236.253 743.663Z" fill="#FFED36" fill-opacity="0.35"/>
<path d="M695.71 26.3543L699.048 33.8763L706.674 30.784L701.828 37.4356L708.32 42.4939L700.136 41.6234L699.001 49.7741L695.664 42.2521L688.037 45.3444L692.883 38.6928L686.392 33.6345L694.575 34.505L695.71 26.3543Z" fill="#755FFE" fill-opacity="0.65"/>
</g>
<defs>
<clipPath id="clip0_1_2296">
<rect width="1365" height="814" fill="white"/>
</clipPath>
</defs>
</svg>
